<mxfile host="app.diagrams.net" modified="2023-01-10T08:28:31.523Z" agent="5.0 (Macintosh; Intel Mac OS X 10_15_7) AppleWebKit/537.36 (KHTML, like Gecko) Chrome/108.0.0.0 Safari/537.36" version="20.8.3" etag="QjjOQ8e-M_qQbv_l4tou" type="github">
  <diagram id="FbnrrTytVGpIc2E1eRFh" name="第 1 页">
    <mxGraphModel dx="1714" dy="1236" grid="1" gridSize="10" guides="1" tooltips="1" connect="1" arrows="1" fold="1" page="0" pageScale="1" pageWidth="827" pageHeight="1169" math="0" shadow="0">
      <root>
        <mxCell id="0" />
        <mxCell id="1" parent="0" />
        <mxCell id="ZKBdzPiQZou7lGJNqGg5-3" style="edgeStyle=orthogonalEdgeStyle;rounded=0;orthogonalLoop=1;jettySize=auto;html=1;exitX=0.5;exitY=0.5;exitDx=0;exitDy=0;exitPerimeter=0;" edge="1" parent="1" source="ZKBdzPiQZou7lGJNqGg5-1" target="ZKBdzPiQZou7lGJNqGg5-2">
          <mxGeometry relative="1" as="geometry" />
        </mxCell>
        <mxCell id="ZKBdzPiQZou7lGJNqGg5-1" value="用户" style="shape=umlActor;verticalLabelPosition=bottom;verticalAlign=top;html=1;outlineConnect=0;" vertex="1" parent="1">
          <mxGeometry x="-80" y="90" width="30" height="60" as="geometry" />
        </mxCell>
        <mxCell id="ZKBdzPiQZou7lGJNqGg5-13" style="edgeStyle=orthogonalEdgeStyle;rounded=0;orthogonalLoop=1;jettySize=auto;html=1;exitX=0.5;exitY=0;exitDx=0;exitDy=0;entryX=0;entryY=0.5;entryDx=0;entryDy=0;" edge="1" parent="1" source="ZKBdzPiQZou7lGJNqGg5-2" target="ZKBdzPiQZou7lGJNqGg5-5">
          <mxGeometry relative="1" as="geometry" />
        </mxCell>
        <mxCell id="ZKBdzPiQZou7lGJNqGg5-14" value="3.加入" style="edgeLabel;html=1;align=center;verticalAlign=middle;resizable=0;points=[];rotation=90;" vertex="1" connectable="0" parent="ZKBdzPiQZou7lGJNqGg5-13">
          <mxGeometry x="0.0864" y="2" relative="1" as="geometry">
            <mxPoint as="offset" />
          </mxGeometry>
        </mxCell>
        <mxCell id="ZKBdzPiQZou7lGJNqGg5-17" style="edgeStyle=orthogonalEdgeStyle;rounded=0;orthogonalLoop=1;jettySize=auto;html=1;exitX=1;exitY=0.5;exitDx=0;exitDy=0;entryX=1;entryY=0.5;entryDx=0;entryDy=0;" edge="1" parent="1" source="ZKBdzPiQZou7lGJNqGg5-2" target="ZKBdzPiQZou7lGJNqGg5-5">
          <mxGeometry relative="1" as="geometry">
            <mxPoint x="480" y="120" as="targetPoint" />
            <Array as="points">
              <mxPoint x="520" y="120" />
              <mxPoint x="520" y="-20" />
            </Array>
          </mxGeometry>
        </mxCell>
        <mxCell id="ZKBdzPiQZou7lGJNqGg5-19" value="5.加入" style="edgeLabel;html=1;align=center;verticalAlign=middle;resizable=0;points=[];" vertex="1" connectable="0" parent="ZKBdzPiQZou7lGJNqGg5-17">
          <mxGeometry x="-0.15" y="4" relative="1" as="geometry">
            <mxPoint as="offset" />
          </mxGeometry>
        </mxCell>
        <mxCell id="ZKBdzPiQZou7lGJNqGg5-2" value="注册" style="rounded=0;whiteSpace=wrap;html=1;" vertex="1" parent="1">
          <mxGeometry y="100" width="80" height="40" as="geometry" />
        </mxCell>
        <mxCell id="ZKBdzPiQZou7lGJNqGg5-15" style="edgeStyle=orthogonalEdgeStyle;rounded=0;orthogonalLoop=1;jettySize=auto;html=1;exitX=0.5;exitY=1;exitDx=0;exitDy=0;entryX=0.5;entryY=0;entryDx=0;entryDy=0;entryPerimeter=0;" edge="1" parent="1" source="ZKBdzPiQZou7lGJNqGg5-5" target="ZKBdzPiQZou7lGJNqGg5-1">
          <mxGeometry relative="1" as="geometry">
            <Array as="points">
              <mxPoint x="400" y="20" />
              <mxPoint x="-65" y="20" />
            </Array>
          </mxGeometry>
        </mxCell>
        <mxCell id="ZKBdzPiQZou7lGJNqGg5-16" value="4.邀请" style="edgeLabel;html=1;align=center;verticalAlign=middle;resizable=0;points=[];" vertex="1" connectable="0" parent="ZKBdzPiQZou7lGJNqGg5-15">
          <mxGeometry x="-0.445" y="-2" relative="1" as="geometry">
            <mxPoint as="offset" />
          </mxGeometry>
        </mxCell>
        <mxCell id="ZKBdzPiQZou7lGJNqGg5-5" value="商户" style="rounded=0;whiteSpace=wrap;html=1;" vertex="1" parent="1">
          <mxGeometry x="360" y="-40" width="80" height="40" as="geometry" />
        </mxCell>
        <mxCell id="ZKBdzPiQZou7lGJNqGg5-7" style="edgeStyle=orthogonalEdgeStyle;rounded=0;orthogonalLoop=1;jettySize=auto;html=1;exitX=0;exitY=0.5;exitDx=0;exitDy=0;entryX=0.5;entryY=0;entryDx=0;entryDy=0;" edge="1" parent="1" source="ZKBdzPiQZou7lGJNqGg5-6" target="ZKBdzPiQZou7lGJNqGg5-5">
          <mxGeometry relative="1" as="geometry" />
        </mxCell>
        <mxCell id="ZKBdzPiQZou7lGJNqGg5-10" value="1.添加" style="edgeLabel;html=1;align=center;verticalAlign=middle;resizable=0;points=[];" vertex="1" connectable="0" parent="ZKBdzPiQZou7lGJNqGg5-7">
          <mxGeometry x="-0.0727" y="-3" relative="1" as="geometry">
            <mxPoint as="offset" />
          </mxGeometry>
        </mxCell>
        <mxCell id="ZKBdzPiQZou7lGJNqGg5-11" style="edgeStyle=orthogonalEdgeStyle;rounded=0;orthogonalLoop=1;jettySize=auto;html=1;exitX=0.5;exitY=1;exitDx=0;exitDy=0;entryX=0;entryY=1;entryDx=0;entryDy=0;entryPerimeter=0;" edge="1" parent="1" source="ZKBdzPiQZou7lGJNqGg5-6" target="ZKBdzPiQZou7lGJNqGg5-1">
          <mxGeometry relative="1" as="geometry">
            <Array as="points">
              <mxPoint x="600" y="210" />
              <mxPoint x="-80" y="210" />
            </Array>
          </mxGeometry>
        </mxCell>
        <mxCell id="ZKBdzPiQZou7lGJNqGg5-12" value="2.邀请" style="edgeLabel;html=1;align=center;verticalAlign=middle;resizable=0;points=[];" vertex="1" connectable="0" parent="ZKBdzPiQZou7lGJNqGg5-11">
          <mxGeometry x="0.1146" y="3" relative="1" as="geometry">
            <mxPoint as="offset" />
          </mxGeometry>
        </mxCell>
        <mxCell id="ZKBdzPiQZou7lGJNqGg5-6" value="运营" style="rounded=0;whiteSpace=wrap;html=1;" vertex="1" parent="1">
          <mxGeometry x="560" y="-120" width="80" height="40" as="geometry" />
        </mxCell>
      </root>
    </mxGraphModel>
  </diagram>
</mxfile>
